# xmcd
#
# Track frame offsets:
# 150
# 16787
# 35789
# 64627
#
# Disc length: 2888 seconds
#
# Revision: 0
# Processed by: cddbd v1.5.1PL0 Copyright (c) Steve Scherf et al.
# Submitted via: Audion 3.0.2 (http://www.panic.com/audion/)
#
DISCID=2a0b4604
DTITLE=Spring Estuary - Koji Asano
DYEAR=1900
DGENRE=
TTITLE0=Spring Estuary I
TTITLE1=Spring Estuary II
TTITLE2=Spring Estuary III
TTITLE3=Spring Estuary IV
EXTD=
EXTT0=
EXTT1=
EXTT2=
EXTT3=
PLAYORDER=
